<?xml version="1.0" encoding="UTF-8"?><mxfile host="app.diagrams.net" modified="2024-04-23T02:14:45.625Z" agent="Mozilla/5.0" etag="SomeEtag" version="24.2.8"><diagram id="YourDiagramID" name="Page-1"><mxGraphModel dx="1424" dy="632" grid="1" gridSize="10" guides="1" tooltips="1" connect="1" arrows="1" fold="1" page="1" pageScale="1" pageWidth="827" pageHeight="1169" math="0" shadow="0"><root><mxCell id="0"/><mxCell id="1" parent="0"/><mxCell id="2" value="<{ComputableMetric|<br ALIGN="LEFT"/>|<I>final_update</I>(stat_helper: TweetAnalyticsHelper)<br ALIGN="LEFT"/>}>" style="rounded=0;whiteSpace=wrap;html=1;aspect=fixed;" vertex="1" parent="1"><mxGeometry x="100" y="60" width="120" height="60" as="geometry"/></mxCell><mxCell id="3" value="<{DependentMetric|<br ALIGN="LEFT"/>|add_dependencies(metric_names: set[str])<br ALIGN="LEFT"/>add_dependency(metric_name: str)<br ALIGN="LEFT"/>get_dependencies(): set[str]<br ALIGN="LEFT"/>get_metric(metric_name: str): dict[str, Metric]<br ALIGN="LEFT"/>is_a_dependency(metric_name: str): bool<br ALIGN="LEFT"/>set_metric_container(metric_container: MetricContainer)<br ALIGN="LEFT"/>}>" style="rounded=0;whiteSpace=wrap;html=1;aspect=fixed;" vertex="1" parent="1"><mxGeometry x="100" y="90" width="120" height="60" as="geometry"/></mxCell><mxCell id="4" value="<{GenLikesPerFollower|<br ALIGN="LEFT"/>|generate_metrics(stat_helper)<br ALIGN="LEFT"/>}>" style="rounded=0;whiteSpace=wrap;html=1;aspect=fixed;" vertex="1" parent="1"><mxGeometry x="100" y="120" width="120" height="60" as="geometry"/></mxCell><mxCell id="5" value="<{Metric|metric_encoder : MetricEncoder<br ALIGN="LEFT"/>|flag_as_error()<br ALIGN="LEFT"/>get_data()<br ALIGN="LEFT"/>get_metric_name(): str<br ALIGN="LEFT"/>get_owner(): str<br ALIGN="LEFT"/>is_error(): bool<br ALIGN="LEFT"/>set_data(data)<br ALIGN="LEFT"/>}>" style="rounded=0;whiteSpace=wrap;html=1;aspect=fixed;" vertex="1" parent="1"><mxGeometry x="100" y="150" width="120" height="60" as="geometry"/></mxCell><mxCell id="6" value="<{MetricGenerator|<br ALIGN="LEFT"/>|generate_and_validate(stat_helper: TweetAnalyticsHelper): list[Metric]<br ALIGN="LEFT"/><I>generate_metrics</I>(stat_helper: TweetAnalyticsHelper): list[Metric]<br ALIGN="LEFT"/>get_expected_metric_names(): set[str]<br ALIGN="LEFT"/>}>" style="rounded=0;whiteSpace=wrap;html=1;aspect=fixed;" vertex="1" parent="1"><mxGeometry x="100" y="180" width="120" height="60" as="geometry"/></mxCell><mxCell id="7" value="<{OverTweetMetric|<br ALIGN="LEFT"/>|<I>tweet_update</I>(tweet: Tweet)<br ALIGN="LEFT"/>}>" style="rounded=0;whiteSpace=wrap;html=1;aspect=fixed;" vertex="1" parent="1"><mxGeometry x="100" y="210" width="120" height="60" as="geometry"/></mxCell><mxCell id="8" value="<{PearsonCorrelationProfileStatGenerator|prop_list : list<br ALIGN="LEFT"/>|gen_pearson_correlations_for_profile(profile_plus: ProfileWithTweetProperties): list[Metric]<br ALIGN="LEFT"/>generate_metrics(stat_helper: TweetAnalyticsHelper): list[Metric]<br ALIGN="LEFT"/>}>" style="rounded=0;whiteSpace=wrap;html=1;aspect=fixed;" vertex="1" parent="1"><mxGeometry x="100" y="240" width="120" height="60" as="geometry"/></mxCell><mxCell id="9" value="<{StandardProfileStatGenerator|<br ALIGN="LEFT"/>|gen_standard_stats_for_all_profiles(stat_helper: TweetAnalyticsHelper): List[Metric]<br ALIGN="LEFT"/>gen_standard_stats_for_profile(profile_plus: ProfileWithTweetProperties): List[Metric]<br ALIGN="LEFT"/>generate_metrics(stat_helper: TweetAnalyticsHelper): List[Metric]<br ALIGN="LEFT"/>}>" style="rounded=0;whiteSpace=wrap;html=1;aspect=fixed;" vertex="1" parent="1"><mxGeometry x="100" y="270" width="120" height="60" as="geometry"/></mxCell><mxCell id="10" value="<{StandardProfileStatOverTimeGenerator|property_list : list<br ALIGN="LEFT"/>|gen_standard_stats_for_all_profiles(stat_helper: TweetAnalyticsHelper): List[Metric]<br ALIGN="LEFT"/>gen_standard_stats_for_profile(profile_plus: ProfileWithTweetProperties): List[Metric]<br ALIGN="LEFT"/>generate_metrics(stat_helper: TweetAnalyticsHelper): List[Metric]<br ALIGN="LEFT"/>}>" style="rounded=0;whiteSpace=wrap;html=1;aspect=fixed;" vertex="1" parent="1"><mxGeometry x="100" y="300" width="120" height="60" as="geometry"/></mxCell><mxCell id="11" value="<{StandardProfileStatOverWeekGeneratorWeekly|property_list : list<br ALIGN="LEFT"/>|gen_standard_stats_for_all_profiles(stat_helper: TweetAnalyticsHelper): List[Metric]<br ALIGN="LEFT"/>gen_standard_stats_for_profile(profile_plus: ProfileWithTweetProperties): List[Metric]<br ALIGN="LEFT"/>generate_metrics(stat_helper: TweetAnalyticsHelper): List[Metric]<br ALIGN="LEFT"/>}>" style="rounded=0;whiteSpace=wrap;html=1;aspect=fixed;" vertex="1" parent="1"><mxGeometry x="100" y="330" width="120" height="60" as="geometry"/></mxCell><mxCell id="12" value="<{WordFrequencyMetric|count : int<br ALIGN="LEFT"/>english_words : NoneType, set<br ALIGN="LEFT"/>return_count : int<br ALIGN="LEFT"/>stop_words : NoneType, set<br ALIGN="LEFT"/>words : dict<br ALIGN="LEFT"/>|final_update(stat_helper)<br ALIGN="LEFT"/>tweet_update(tweet)<br ALIGN="LEFT"/>}>" style="rounded=0;whiteSpace=wrap;html=1;aspect=fixed;" vertex="1" parent="1"><mxGeometry x="100" y="360" width="120" height="60" as="geometry"/></mxCell><mxCell id="13" value="" style="edgeStyle=orthogonalEdgeStyle;rounded=0;orthogonalLoop=1;jettySize=auto;html=1;" edge="1" parent="1" source="4" target="3"><mxGeometry relative="1" as="geometry"/></mxCell><mxCell id="14" value="" style="edgeStyle=orthogonalEdgeStyle;rounded=0;orthogonalLoop=1;jettySize=auto;html=1;" edge="1" parent="1" source="4" target="6"><mxGeometry relative="1" as="geometry"/></mxCell><mxCell id="15" value="" style="edgeStyle=orthogonalEdgeStyle;rounded=0;orthogonalLoop=1;jettySize=auto;html=1;" edge="1" parent="1" source="8" target="6"><mxGeometry relative="1" as="geometry"/></mxCell><mxCell id="16" value="" style="edgeStyle=orthogonalEdgeStyle;rounded=0;orthogonalLoop=1;jettySize=auto;html=1;" edge="1" parent="1" source="9" target="6"><mxGeometry relative="1" as="geometry"/></mxCell><mxCell id="17" value="" style="edgeStyle=orthogonalEdgeStyle;rounded=0;orthogonalLoop=1;jettySize=auto;html=1;" edge="1" parent="1" source="10" target="6"><mxGeometry relative="1" as="geometry"/></mxCell><mxCell id="18" value="" style="edgeStyle=orthogonalEdgeStyle;rounded=0;orthogonalLoop=1;jettySize=auto;html=1;" edge="1" parent="1" source="11" target="6"><mxGeometry relative="1" as="geometry"/></mxCell><mxCell id="19" value="" style="edgeStyle=orthogonalEdgeStyle;rounded=0;orthogonalLoop=1;jettySize=auto;html=1;" edge="1" parent="1" source="2" target="5"><mxGeometry relative="1" as="geometry"/></mxCell><mxCell id="20" value="" style="edgeStyle=orthogonalEdgeStyle;rounded=0;orthogonalLoop=1;jettySize=auto;html=1;" edge="1" parent="1" source="7" target="2"><mxGeometry relative="1" as="geometry"/></mxCell><mxCell id="21" value="" style="edgeStyle=orthogonalEdgeStyle;rounded=0;orthogonalLoop=1;jettySize=auto;html=1;" edge="1" parent="1" source="12" target="7"><mxGeometry relative="1" as="geometry"/></mxCell></root></mxGraphModel></diagram></mxfile>